<svg xmlns="http://www.w3.org/2000/svg" width="72" height="72" viewBox="0 0 72 72">
  <defs><linearGradient id="g1" gradientUnits="userSpaceOnUse" x1="0.0" y1="0.0" x2="72.0" y2="72.0" spreadMethod="pad"><stop offset="0.0" stop-color="#6FA3FF" stop-opacity="1"/><stop offset="0.5" stop-color="#3B78F0" stop-opacity="1"/><stop offset="1.0" stop-color="#1F4CC0" stop-opacity="1"/></linearGradient><radialGradient id="g2" gradientUnits="userSpaceOnUse" cx="24.0" cy="20.0" r="46.0" spreadMethod="pad"><stop offset="0.0" stop-color="#FFFFFF" stop-opacity="0.1412"/><stop offset="1.0" stop-color="#FFFFFF" stop-opacity="0"/></radialGradient></defs>
  <path d="M0,36 a36,36 0 1,0 72,0 a36,36 0 1,0 -72,0 Z" fill="url(#g1)" fill-opacity="1"/>
  <path d="M0,36 a36,36 0 1,0 72,0 a36,36 0 1,0 -72,0 Z" fill="url(#g2)" fill-opacity="1"/>
  <g transform="translate(-18 -18) rotate(0) scale(1 1) translate(0 0)">
    <g transform="translate(54 57) rotate(0) scale(0.82 0.82) translate(-54 -54)">
      <path d="M28,38 A24,24 0 0,0 28,60" fill="none" stroke="#FFFFFF" stroke-opacity="1" stroke-width="2.8" stroke-linecap="round" stroke-linejoin="miter" stroke-miterlimit="4"/>
      <path d="M80,38 A24,24 0 0,1 80,60" fill="none" stroke="#FFFFFF" stroke-opacity="1" stroke-width="2.8" stroke-linecap="round" stroke-linejoin="miter" stroke-miterlimit="4"/>
      <path d="M22,33 A31,31 0 0,0 22,65" fill="none" stroke="#FFFFFF" stroke-opacity="0.5" stroke-width="2.8" stroke-linecap="round" stroke-linejoin="miter" stroke-miterlimit="4"/>
      <path d="M86,33 A31,31 0 0,1 86,65" fill="none" stroke="#FFFFFF" stroke-opacity="0.5" stroke-width="2.8" stroke-linecap="round" stroke-linejoin="miter" stroke-miterlimit="4"/>
      <g transform="translate(54 47) rotate(0) scale(1.4 1.4) translate(0 0)">
        <path d="M-6,-14 C-6,-15.5 6,-15.5 6,-14 C10,-12 11,-6 11,0 C11,5 13,8 16,11 L-16,11 C-13,8 -11,5 -11,0 C-11,-6 -10,-12 -6,-14 Z" fill="none" stroke="#FFFFFF" stroke-opacity="1" stroke-width="2.7" stroke-linecap="butt" stroke-linejoin="round" stroke-miterlimit="4"/>
        <path d="M-2,-17 a2,2 0 1,0 4,0 a2,2 0 1,0 -4,0 Z" fill="#FFFFFF" fill-opacity="1"/>
      </g>
      <path d="M45,54 L51,48 L56,52 L63,44" fill="none" stroke="#FFFFFF" stroke-opacity="1" stroke-width="3.6" stroke-linecap="round" stroke-linejoin="round" stroke-miterlimit="4"/>
      <path d="M58,43 L63,44 L63,49" fill="none" stroke="#FFFFFF" stroke-opacity="1" stroke-width="3.6" stroke-linecap="round" stroke-linejoin="round" stroke-miterlimit="4"/>
      <path d="M46.2,72.5 a7.8,7.8 0 1,0 15.6,0 a7.8,7.8 0 1,0 -15.6,0 Z" fill="#FFFFFF" fill-opacity="1"/>
      <g transform="translate(54 72.5) rotate(14) scale(0.95 0.95) translate(0 0)">
        <path d="M-2,-4.5 L-2,4.5" fill="none" stroke="#3B78F0" stroke-opacity="1" stroke-width="1.55" stroke-linecap="round" stroke-linejoin="round" stroke-miterlimit="4"/>
        <path d="M-3.4,-4.5 L0.8,-4.5 C3.1,-4.5 3.1,-0.2 0.8,-0.2 L-2,-0.2" fill="none" stroke="#3B78F0" stroke-opacity="1" stroke-width="1.55" stroke-linecap="round" stroke-linejoin="round" stroke-miterlimit="4"/>
        <path d="M-2,-0.2 L1.3,-0.2 C3.9,-0.2 3.9,4.5 1.3,4.5 L-3.4,4.5" fill="none" stroke="#3B78F0" stroke-opacity="1" stroke-width="1.55" stroke-linecap="round" stroke-linejoin="round" stroke-miterlimit="4"/>
        <path d="M-0.9,-4.5 L-0.9,-6.4" fill="none" stroke="#3B78F0" stroke-opacity="1" stroke-width="1.55" stroke-linecap="round" stroke-linejoin="round" stroke-miterlimit="4"/>
        <path d="M0.9,-4.5 L0.9,-6.4" fill="none" stroke="#3B78F0" stroke-opacity="1" stroke-width="1.55" stroke-linecap="round" stroke-linejoin="round" stroke-miterlimit="4"/>
        <path d="M-0.9,4.5 L-0.9,6.4" fill="none" stroke="#3B78F0" stroke-opacity="1" stroke-width="1.55" stroke-linecap="round" stroke-linejoin="round" stroke-miterlimit="4"/>
        <path d="M0.9,4.5 L0.9,6.4" fill="none" stroke="#3B78F0" stroke-opacity="1" stroke-width="1.55" stroke-linecap="round" stroke-linejoin="round" stroke-miterlimit="4"/>
      </g>
    </g>
  </g>
</svg>
